<?xml version="1.0" encoding="utf-8"?>
<svg xmlns="http://www.w3.org/2000/svg" style="margin: auto; display: block; shape-rendering: auto; background: none;" width="280" height="250" preserveAspectRatio="xMidYMid">
<style type="text/css">
  text {
    text-anchor: middle; font-size: 54px; opacity: 0;
  }
</style>
<g style="transform-origin: 140px 125px; transform: scale(0.675);">
<g transform="translate(140,125)">
  <g transform="translate(0,0)"><g class="path" style="transform: scale(0.91); transform-origin: -161.2px 1.95797px; animation: 2.43902s linear -1.46341s infinite normal forwards running breath-0c37ba9e-4350-4018-ad12-649ab4d3ff26;"><path d="M24.72 15.52L24.72 15.52L24.72 15.52Q33.12 15.52 37.80 12.08L37.80 12.08L37.80 12.08Q42.48 8.64 42.48 2.96L42.48 2.96L42.48 2.96Q42.48-1.12 40.44-4.24L40.44-4.24L40.44-4.24Q38.40-7.36 35.36-9.40L35.36-9.40L35.36-9.40Q32.32-11.44 29.16-13.44L29.16-13.44L29.16-13.44Q26-15.44 23.28-18.48L23.28-18.48L23.28-18.48Q20.56-21.52 19.68-25.36L19.68-25.36L19.68-25.36Q12.40-27.52 10.08-34.40L10.08-34.40L10.08-34.40Q9.20-37.04 9.20-39.92L9.20-39.92L9.20-39.92Q9.20-42.80 10.08-45.92L10.08-45.92L10.08-45.92Q11.92-52.08 16.08-55.20L16.08-55.20L16.96-53.92L16.96-53.92Q13.20-51.20 11.52-45.44L11.52-45.44L11.52-45.44Q10.72-42.56 10.72-39.92L10.72-39.92L10.72-39.92Q10.72-37.28 11.52-34.88L11.52-34.88L11.52-34.88Q13.44-29.04 19.44-27.04L19.44-27.04L19.44-27.04Q19.28-27.92 19.28-29.76L19.28-29.76L19.28-29.76Q19.28-40.24 26.88-46.72L26.88-46.72L26.88-46.72Q34.48-53.20 45.44-53.20L45.44-53.20L45.44-53.20Q52.64-53.20 56.96-49.28L56.96-49.28L56.96-49.28Q60.64-45.84 60.64-40.84L60.64-40.84L60.64-40.84Q60.64-35.84 57.28-32.20L57.28-32.20L57.28-32.20Q53.92-28.56 48.24-28.56L48.24-28.56L48.24-28.56Q45.12-28.56 43.12-29.76L43.12-29.76L43.12-29.76Q39.04-26.64 33.44-25.28L33.44-25.28L33.44-25.28Q35.04-23.76 40.92-19.68L40.92-19.68L40.92-19.68Q46.80-15.60 49.72-11.88L49.72-11.88L49.72-11.88Q52.64-8.16 52.64-3.20L52.64-3.20L52.64-3.20Q52.64 5.92 45.56 11.60L45.56 11.60L45.56 11.60Q38.48 17.28 27.64 17.28L27.64 17.28L27.64 17.28Q16.80 17.28 11.28 12.48L11.28 12.48L11.28 12.48Q6.48 8.40 6.48 2.52L6.48 2.52L6.48 2.52Q6.48-3.36 10.28-7.56L10.28-7.56L10.28-7.56Q14.08-11.76 19.76-11.76L19.76-11.76L19.76-11.76Q25.44-11.76 28.16-9.24L28.16-9.24L28.16-9.24Q30.88-6.72 30.88-3.12L30.88-3.12L30.88-3.12Q30.88 0.48 28.68 3.28L28.68 3.28L28.68 3.28Q26.48 6.08 22.96 6.08L22.96 6.08L22.96 6.08Q19.44 6.08 17.36 3.84L17.36 3.84L17.36 3.84Q15.44 1.92 15.20-0.96L15.20-0.96L15.20-0.96Q15.12-1.76 15.20-1.92L15.20-1.92L16.72-1.84L16.72-1.84Q16.64 0.96 18.48 2.80L18.48 2.80L18.48 2.80Q20 4.48 22.92 4.48L22.92 4.48L22.92 4.48Q25.84 4.48 27.60 2.20L27.60 2.20L27.60 2.20Q29.36-0.08 29.36-3.08L29.36-3.08L29.36-3.08Q29.36-6.08 27.28-7.92L27.28-7.92L27.28-7.92Q24.96-10.24 19.84-10.24L19.84-10.24L19.84-10.24Q14.72-10.24 11.36-6.52L11.36-6.52L11.36-6.52Q8-2.80 8 2.44L8 2.44L8 2.44Q8 7.68 12.32 11.36L12.32 11.36L12.32 11.36Q14.88 13.60 17.56 14.56L17.56 14.56L17.56 14.56Q20.24 15.52 24.72 15.52zM38.32-39.52L38.32-39.52L38.32-39.52Q38.32-43.04 40.12-45.36L40.12-45.36L40.12-45.36Q41.92-47.68 45.04-47.68L45.04-47.68L45.04-47.68Q50.40-47.68 50.40-41.80L50.40-41.80L50.40-41.80Q50.40-35.92 44.56-30.72L44.56-30.72L44.56-30.72Q46.32-29.92 48.24-29.92L48.24-29.92L48.24-29.92Q53.20-29.92 56.16-33.16L56.16-33.16L56.16-33.16Q59.12-36.40 59.12-40.76L59.12-40.76L59.12-40.76Q59.12-45.12 55.92-48.16L55.92-48.16L55.92-48.16Q52-51.68 45.60-51.68L45.60-51.68L45.60-51.68Q39.20-51.68 34.72-48.56L34.72-48.56L34.72-48.56Q27.76-43.60 27.76-35.76L27.76-35.76L27.76-35.76Q27.76-29.28 32.08-26.32L32.08-26.32L32.08-26.32Q37.44-27.52 42-30.64L42-30.64L42-30.64Q38.32-33.92 38.32-39.52zM44.96-46.24L44.96-46.24L44.96-46.24Q42.56-46.24 41.24-44.40L41.24-44.40L41.24-44.40Q39.92-42.56 39.92-39.52L39.92-39.52L39.92-39.52Q39.92-34.32 43.20-31.60L43.20-31.60L43.20-31.60Q45.60-33.28 47.20-36.16L47.20-36.16L47.20-36.16Q48.80-39.04 48.80-41.84L48.80-41.84L48.80-41.84Q48.80-46.24 44.96-46.24" fill="#a12d2b" stroke="none" stroke-width="none" transform="translate(-194.760009765625,20.91796272971414)" style="fill: rgb(161, 45, 43);"></path></g><g class="path" style="transform: scale(0.91); transform-origin: -117.56px 5.71796px; animation: 2.43902s linear -1.31707s infinite normal forwards running breath-0c37ba9e-4350-4018-ad12-649ab4d3ff26;"><path d="M74.08 0.72L74.08 0.72Q67.92 0.72 64.72-2.36L64.72-2.36L64.72-2.36Q61.52-5.44 61.52-10.12L61.52-10.12L61.52-10.12Q61.52-14.80 62.36-18.12L62.36-18.12L62.36-18.12Q63.20-21.44 65.12-24.52L65.12-24.52L65.12-24.52Q67.04-27.60 70.92-29.36L70.92-29.36L70.92-29.36Q74.80-31.12 80.60-31.12L80.60-31.12L80.60-31.12Q86.40-31.12 89.64-28.04L89.64-28.04L89.64-28.04Q92.88-24.96 92.88-19.60L92.88-19.60L92.88-19.60Q92.88-10.48 88.04-4.88L88.04-4.88L88.04-4.88Q83.20 0.72 74.08 0.72L74.08 0.72zM70.56-7.52L70.56-7.52L70.56-7.52Q70.56-1.12 74.28-1.12L74.28-1.12L74.28-1.12Q78-1.12 80.92-7.56L80.92-7.56L80.92-7.56Q83.84-14 83.84-22.88L83.84-22.88L83.84-22.88Q83.84-29.60 80.20-29.60L80.20-29.60L80.20-29.60Q76.56-29.60 73.56-23.48L73.56-23.48L73.56-23.48Q70.56-17.36 70.56-7.52" fill="#a12d2b" stroke="none" stroke-width="none" transform="translate(-194.760009765625,20.91796272971414)" style="fill: rgb(190, 73, 57);"></path></g><g class="path" style="transform: scale(0.91); transform-origin: -83.48px 5.71796px; animation: 2.43902s linear -1.17073s infinite normal forwards running breath-0c37ba9e-4350-4018-ad12-649ab4d3ff26;"><path d="M116.08-16.72L116.08-16.72L116.08-16.72Q114.40-18.40 114.40-20.80L114.40-20.80L114.40-20.80Q114.40-23.20 116.08-24.92L116.08-24.92L116.08-24.92Q117.76-26.64 120.16-26.64L120.16-26.64L120.16-26.64Q120.88-26.64 122.00-26.32L122.00-26.32L122.00-26.32Q120.48-29.12 116.32-29.12L116.32-29.12L116.32-29.12Q112.16-29.12 108.96-23.84L108.96-23.84L108.96-23.84Q105.76-18.56 105.76-8.16L105.76-8.16L105.76-8.16Q105.76-4.56 107.40-2.84L107.40-2.84L107.40-2.84Q109.04-1.12 111.52-1.12L111.52-1.12L111.52-1.12Q114.00-1.12 116.04-2.08L116.04-2.08L116.04-2.08Q118.08-3.04 119.28-4.36L119.28-4.36L119.28-4.36Q120.48-5.68 121.36-7.12L121.36-7.12L121.36-7.12Q122.96-9.76 122.96-10.48L122.96-10.48L124.40-9.84L124.40-9.84Q124.16-8.56 122.96-6.44L122.96-6.44L122.96-6.44Q121.76-4.32 120.32-2.96L120.32-2.96L120.32-2.96Q118.88-1.60 116.08-0.44L116.08-0.44L116.08-0.44Q113.28 0.72 109.84 0.72L109.84 0.72L109.84 0.72Q103.36 0.72 100.04-2.36L100.04-2.36L100.04-2.36Q96.72-5.44 96.72-10.80L96.72-10.80L96.72-10.80Q96.72-20.32 101.48-25.72L101.48-25.72L101.48-25.72Q106.24-31.12 114.40-31.12L114.40-31.12L114.40-31.12Q119.92-31.12 122.88-28.32L122.88-28.32L122.88-28.32Q125.84-25.52 125.84-20.96L125.84-20.96L125.84-20.96Q125.84-18.08 124.12-16.56L124.12-16.56L124.12-16.56Q122.40-15.04 120.08-15.04L120.08-15.04L120.08-15.04Q117.76-15.04 116.08-16.72" fill="#a12d2b" stroke="none" stroke-width="none" transform="translate(-194.760009765625,20.91796272971414)" style="fill: rgb(220, 105, 73);"></path></g><g class="path" style="transform: scale(0.91); transform-origin: -57.44px 5.71796px; animation: 2.43902s linear -1.02439s infinite normal forwards running breath-0c37ba9e-4350-4018-ad12-649ab4d3ff26;"><path d="M144.00-2.16L144.00-2.16Q141.60 0.72 138.00 0.72L138.00 0.72L138.00 0.72Q134.40 0.72 132.36-1.12L132.36-1.12L132.36-1.12Q130.32-2.96 130.32-5.92L130.32-5.92L130.32-5.92Q130.32-6.96 131.60-14.64L131.60-14.64L134.24-28.96L130.88-28.96L131.04-30.40L134.48-30.40L134.48-30.40Q140.40-30.40 143.20-30.88L143.20-30.88L144.32-31.12L138.80-0.88L138.80-0.88Q141.20-1.12 142.80-3.12L142.80-3.12L144.00-2.16" fill="#a12d2b" stroke="none" stroke-width="none" transform="translate(-194.760009765625,20.91796272971414)" style="fill: rgb(8, 6, 4);"></path></g><g class="path" style="transform: scale(0.91); transform-origin: -53.68px -22.002px; animation: 2.43902s linear -0.878049s infinite normal forwards running breath-0c37ba9e-4350-4018-ad12-649ab4d3ff26;"><path d="M136.96-38.80L136.96-38.80L136.96-38.80Q135.28-40.48 135.28-42.88L135.28-42.88L135.28-42.88Q135.28-45.28 136.96-47L136.96-47L136.96-47Q138.64-48.72 141.04-48.72L141.04-48.72L141.04-48.72Q143.44-48.72 145.16-47L145.16-47L145.16-47Q146.88-45.28 146.88-42.88L146.88-42.88L146.88-42.88Q146.88-40.48 145.16-38.80L145.16-38.80L145.16-38.80Q143.44-37.12 141.04-37.12L141.04-37.12L141.04-37.12Q138.64-37.12 136.96-38.80" fill="#a12d2b" stroke="none" stroke-width="none" transform="translate(-194.760009765625,20.91796272971414)" style="fill: rgb(247, 246, 234);"></path></g><g class="path" style="transform: scale(0.91); transform-origin: -28.92px 5.71796px; animation: 2.43902s linear -0.731707s infinite normal forwards running breath-0c37ba9e-4350-4018-ad12-649ab4d3ff26;"><path d="M176.80 0.72L176.80 0.72L176.80 0.72Q169.76 0.72 169.12-5.44L169.12-5.44L169.12-5.44Q165.60 0.72 160.24 0.72L160.24 0.72L160.24 0.72Q154.88 0.72 151.72-2.52L151.72-2.52L151.72-2.52Q148.56-5.76 148.56-11.60L148.56-11.60L148.56-11.60Q148.56-20.72 153.04-25.92L153.04-25.92L153.04-25.92Q157.52-31.12 164.64-31.12L164.64-31.12L164.64-31.12Q170.48-31.12 172.40-25.60L172.40-25.60L172.40-25.60Q172.80-28 173.28-30.40L173.28-30.40L173.28-30.40Q179.20-30.40 182.08-30.88L182.08-30.88L183.12-31.12L177.60-0.88L177.60-0.88Q180.00-1.12 181.60-3.12L181.60-3.12L182.80-2.16L182.80-2.16Q180.40 0.72 176.80 0.72zM157.60-7.52L157.60-7.52Q157.60-3.92 158.52-2.52L158.52-2.52L158.52-2.52Q159.44-1.12 161.36-1.12L161.36-1.12L161.36-1.12Q163.28-1.12 165.28-3.20L165.28-3.20L165.28-3.20Q167.92-5.92 169.52-10.08L169.52-10.08L169.52-10.08Q169.76-11.12 170.44-15.08L170.44-15.08L170.44-15.08Q171.12-19.04 171.60-21.60L171.60-21.60L171.60-21.60Q171.36-24.64 169.92-26.88L169.92-26.88L169.92-26.88Q168.48-29.12 166.32-29.12L166.32-29.12L166.32-29.12Q162.40-29.12 160.00-22.12L160.00-22.12L160.00-22.12Q157.60-15.12 157.60-7.52L157.60-7.52" fill="#a12d2b" stroke="none" stroke-width="none" transform="translate(-194.760009765625,20.91796272971414)" style="fill: rgb(125, 129, 118);"></path></g><g class="path" style="transform: scale(0.91); transform-origin: 4.07999px -4.64204px; animation: 2.43902s linear -0.585366s infinite normal forwards running breath-0c37ba9e-4350-4018-ad12-649ab4d3ff26;"><path d="M201.92-2.88L201.92-2.88L201.92-2.88Q200.88-1.52 199.08-0.40L199.08-0.40L199.08-0.40Q197.28 0.72 194.40 0.72L194.40 0.72L194.40 0.72Q191.52 0.72 189.52-1.12L189.52-1.12L189.52-1.12Q187.52-2.96 187.52-6.32L187.52-6.32L187.52-6.32Q187.52-6.96 187.68-8.40L187.68-8.40L192.88-37.20L192.88-37.20Q194.32-45.12 196.84-48.48L196.84-48.48L196.84-48.48Q199.36-51.84 203.52-51.84L203.52-51.84L203.52-51.84Q206.40-51.84 208.28-49.68L208.28-49.68L208.28-49.68Q210.16-47.52 210.16-43.12L210.16-43.12L210.16-43.12Q210.16-38.72 206.76-30.56L206.76-30.56L206.76-30.56Q203.36-22.40 203.36-18.64L203.36-18.64L201.92-18.64L201.92-18.64Q201.92-22.88 205.28-30.76L205.28-30.76L205.28-30.76Q208.64-38.64 208.64-43.36L208.64-43.36L208.64-43.36Q208.64-46.24 207.32-48.32L207.32-48.32L207.32-48.32Q206.00-50.40 204.08-50.40L204.08-50.40L204.08-50.40Q204.00-48.32 201.32-31.72L201.32-31.72L201.32-31.72Q198.64-15.12 196.00-0.88L196.00-0.88L196.00-0.88Q198.24-0.88 200.16-3.20L200.16-3.20L200.16-3.20Q202.08-5.52 202.88-7.84L202.88-7.84L203.76-10.24L205.20-9.60L205.20-9.60Q204.96-8.48 203.96-6.36L203.96-6.36L203.96-6.36Q202.96-4.24 201.92-2.88" fill="#a12d2b" stroke="none" stroke-width="none" transform="translate(-194.760009765625,20.91796272971414)" style="fill: rgb(243, 182, 63);"></path></g><g class="path" style="transform: scale(0.91); transform-origin: 66.96px 2.75796px; animation: 2.43902s linear -0.439024s infinite normal forwards running breath-0c37ba9e-4350-4018-ad12-649ab4d3ff26;"><path d="M230.08-24.88L230.08-24.88L230.08-24.88Q230.08-17.28 238.16-14.72L238.16-14.72L238.16-14.72Q241.36-13.76 243.48-13.64L243.48-13.64L243.48-13.64Q245.60-13.52 245.76-13.68L245.76-13.68L245.84-12L245.36-12L245.36-12Q236.40-12 231.76-16.48L231.76-16.48L231.76-16.48Q228.40-19.60 228.40-24.88L228.40-24.88L228.40-24.88Q228.40-36.24 240.44-42.48L240.44-42.48L240.44-42.48Q252.48-48.72 274.32-48.72L274.32-48.72L274.32-48.72Q285.76-48.72 290.40-46.24L290.40-46.24L290.40-46.24Q295.04-43.76 295.04-39.12L295.04-39.12L295.04-39.12Q295.04-35.44 292.72-31.64L292.72-31.64L292.72-31.64Q290.40-27.84 287.12-23.76L287.12-23.76L287.12-23.76Q283.84-19.68 282.64-16.88L282.64-16.88L286.88-16.88L286.72-15.44L282.08-15.44L282.08-15.44Q281.44-13.36 281.44-11.68L281.44-11.68L279.76-11.68L279.76-11.68Q279.76-13.60 280.24-15.44L280.24-15.44L270.08-15.44L268.40-6.08L268.40-6.08Q266.72 2.56 260.32 7.48L260.32 7.48L260.32 7.48Q253.92 12.40 246.56 12.40L246.56 12.40L246.56 10.80L246.56 10.80Q252.00 10.72 253.56 8.48L253.56 8.48L253.56 8.48Q255.12 6.24 256.64-2.48L256.64-2.48L258.80-15.44L254.72-15.44L254.88-16.88L259.04-16.88L264.24-46.72L264.24-46.72Q247.84-45.36 238.96-39.72L238.96-39.72L238.96-39.72Q230.08-34.08 230.08-24.88zM293.12-39.12L293.12-39.12L293.12-39.12Q293.12-47.12 274.96-47.12L274.96-47.12L274.96-47.12Q271.68-24.48 270.32-16.88L270.32-16.88L280.80-16.88L280.80-16.88Q282.00-19.92 285.20-24.04L285.20-24.04L285.20-24.04Q288.40-28.16 290.76-31.92L290.76-31.92L290.76-31.92Q293.12-35.68 293.12-39.12" fill="#a12d2b" stroke="none" stroke-width="none" transform="translate(-194.760009765625,20.91796272971414)" style="fill: rgb(161, 45, 43);"></path></g><g class="path" style="transform: scale(0.91); transform-origin: 115.16px 5.71796px; animation: 2.43902s linear -0.292683s infinite normal forwards running breath-0c37ba9e-4350-4018-ad12-649ab4d3ff26;"><path d="M313.44-31.12L313.44-31.12L313.44-31.12Q323.60-31.12 323.60-23.04L323.60-23.04L323.60-23.04Q323.60-18 318.84-15.40L318.84-15.40L318.84-15.40Q314.08-12.80 305.28-12.72L305.28-12.72L305.28-12.72Q305.12-9.84 305.12-8.16L305.12-8.16L305.12-8.16Q305.12-4.56 306.76-2.84L306.76-2.84L306.76-2.84Q308.40-1.12 310.88-1.12L310.88-1.12L310.88-1.12Q313.36-1.12 315.40-2.08L315.40-2.08L315.40-2.08Q317.44-3.04 318.64-4.36L318.64-4.36L318.64-4.36Q319.84-5.68 320.72-7.12L320.72-7.12L320.72-7.12Q322.32-9.76 322.32-10.48L322.32-10.48L323.76-9.84L323.76-9.84Q323.52-8.56 322.32-6.44L322.32-6.44L322.32-6.44Q321.12-4.32 319.68-2.96L319.68-2.96L319.68-2.96Q318.24-1.60 315.44-0.44L315.44-0.44L315.44-0.44Q312.64 0.72 309.20 0.72L309.20 0.72L309.20 0.72Q302.72 0.72 299.40-2.36L299.40-2.36L299.40-2.36Q296.08-5.44 296.08-10.80L296.08-10.80L296.08-10.80Q296.08-20.32 300.80-25.72L300.80-25.72L300.80-25.72Q305.52-31.12 313.44-31.12zM321.60-23.04L321.60-23.04Q321.60-25.68 320.04-27.40L320.04-27.40L320.04-27.40Q318.48-29.12 315.40-29.12L315.40-29.12L315.40-29.12Q312.32-29.12 309.40-25.44L309.40-25.44L309.40-25.44Q306.48-21.76 305.52-14.56L305.52-14.56L305.52-14.56Q321.60-14.64 321.60-23.04L321.60-23.04" fill="#a12d2b" stroke="none" stroke-width="none" transform="translate(-194.760009765625,20.91796272971414)" style="fill: rgb(190, 73, 57);"></path></g><g class="path" style="transform: scale(0.91); transform-origin: 146.92px 5.71796px; animation: 2.43902s linear -0.146341s infinite normal forwards running breath-0c37ba9e-4350-4018-ad12-649ab4d3ff26;"><path d="M345.20-31.12L345.20-31.12L345.20-31.12Q355.36-31.12 355.36-23.04L355.36-23.04L355.36-23.04Q355.36-18 350.60-15.40L350.60-15.40L350.60-15.40Q345.84-12.80 337.04-12.72L337.04-12.72L337.04-12.72Q336.88-9.84 336.88-8.16L336.88-8.16L336.88-8.16Q336.88-4.56 338.52-2.84L338.52-2.84L338.52-2.84Q340.16-1.12 342.64-1.12L342.64-1.12L342.64-1.12Q345.12-1.12 347.16-2.08L347.16-2.08L347.16-2.08Q349.20-3.04 350.40-4.36L350.40-4.36L350.40-4.36Q351.60-5.68 352.48-7.12L352.48-7.12L352.48-7.12Q354.08-9.76 354.08-10.48L354.08-10.48L355.52-9.84L355.52-9.84Q355.28-8.56 354.08-6.44L354.08-6.44L354.08-6.44Q352.88-4.32 351.44-2.96L351.44-2.96L351.44-2.96Q350.00-1.60 347.20-0.44L347.20-0.44L347.20-0.44Q344.40 0.72 340.96 0.72L340.96 0.72L340.96 0.72Q334.48 0.72 331.16-2.36L331.16-2.36L331.16-2.36Q327.84-5.44 327.84-10.80L327.84-10.80L327.84-10.80Q327.84-20.32 332.56-25.72L332.56-25.72L332.56-25.72Q337.28-31.12 345.20-31.12zM353.36-23.04L353.36-23.04Q353.36-25.68 351.80-27.40L351.80-27.40L351.80-27.40Q350.24-29.12 347.16-29.12L347.16-29.12L347.16-29.12Q344.08-29.12 341.16-25.44L341.16-25.44L341.16-25.44Q338.24-21.76 337.28-14.56L337.28-14.56L337.28-14.56Q353.36-14.64 353.36-23.04L353.36-23.04" fill="#a12d2b" stroke="none" stroke-width="none" transform="translate(-194.760009765625,20.91796272971414)" style="fill: rgb(220, 105, 73);"></path></g><g class="path" style="transform: scale(0.91); transform-origin: 183.04px -4.64204px; animation: 2.43902s linear 0s infinite normal forwards running breath-0c37ba9e-4350-4018-ad12-649ab4d3ff26;"><path d="M387.44 0.72L387.44 0.72L387.44 0.72Q380.40 0.72 379.76-5.28L379.76-5.28L379.76-5.28Q376.24 0.72 370.80 0.72L370.80 0.72L370.80 0.72Q365.36 0.72 362.48-2.36L362.48-2.36L362.48-2.36Q359.60-5.44 359.60-10.80L359.60-10.80L359.60-10.80Q359.60-20.24 364.08-25.68L364.08-25.68L364.08-25.68Q368.56-31.12 375.68-31.12L375.68-31.12L375.68-31.12Q379.76-31.12 382.00-28.64L382.00-28.64L382.00-28.64Q382.96-27.36 383.20-26.72L383.20-26.72L387.52-50.24L387.52-50.24Q385.12-50 383.52-48L383.52-48L382.32-48.96L382.32-48.96Q384.72-51.84 388.36-51.84L388.36-51.84L388.36-51.84Q392.00-51.84 394.00-50L394.00-50L394.00-50Q396.00-48.16 396.00-44.80L396.00-44.80L396.00-44.80Q396.00-44.16 395.84-42.72L395.84-42.72L395.84-42.72Q391.92-20.72 388.24-0.88L388.24-0.88L388.24-0.88Q390.64-1.12 392.24-3.12L392.24-3.12L393.44-2.16L393.44-2.16Q391.04 0.72 387.44 0.72zM368.64-7.52L368.64-7.52Q368.64-3.84 369.40-2.48L369.40-2.48L369.40-2.48Q370.16-1.12 371.80-1.12L371.80-1.12L371.80-1.12Q373.44-1.12 374.96-2.24L374.96-2.24L374.96-2.24Q376.48-3.36 377.52-5.12L377.52-5.12L377.52-5.12Q379.44-8.08 380.24-10.16L380.24-10.16L382.56-22.80L382.56-22.80Q382.40-25.36 380.88-27.48L380.88-27.48L380.88-27.48Q379.36-29.60 375.68-29.60L375.68-29.60L375.68-29.60Q373.12-29.60 370.88-22.08L370.88-22.08L370.88-22.08Q368.64-14.56 368.64-7.52L368.64-7.52" fill="#a12d2b" stroke="none" stroke-width="none" transform="translate(-194.760009765625,20.91796272971414)" style="fill: rgb(8, 6, 4);"></path></g></g>
</g>
</g>
<style id="breath-0c37ba9e-4350-4018-ad12-649ab4d3ff26" data-anikit="">@keyframes breath-0c37ba9e-4350-4018-ad12-649ab4d3ff26
{
  0% {
    animation-timing-function: cubic-bezier(0.9647,0.2413,-0.0705,0.7911);
    transform: scale(0.9099999999999999);
  }
  51% {
    animation-timing-function: cubic-bezier(0.9226,0.2631,-0.0308,0.7628);
    transform: scale(1.02994);
  }
  100% {
    transform: scale(0.9099999999999999);
  }
}</style></svg>